<svg width="294" height="294" viewBox="0 0 294 294" fill="none" xmlns="http://www.w3.org/2000/svg">
<path d="M61.0547 139.822C61.0544 138.182 61.3782 136.558 62.0074 135.044C62.6365 133.529 63.5587 132.154 64.721 130.997C65.8833 129.84 67.2627 128.924 68.78 128.301C70.2974 127.679 71.9227 127.363 73.5627 127.37L94.2997 127.438C97.6062 127.438 100.777 128.752 103.115 131.09C105.453 133.428 106.767 136.599 106.767 139.905V218.319C109.103 217.627 112.099 216.889 115.381 216.119C117.66 215.583 119.69 214.293 121.144 212.458C122.598 210.623 123.389 208.35 123.39 206.009V108.743C123.389 105.436 124.703 102.265 127.041 99.9264C129.379 97.5879 132.55 96.2738 135.857 96.2733H156.636C159.942 96.2741 163.113 97.5883 165.451 99.9268C167.789 102.265 169.103 105.437 169.103 108.743V199.019C169.103 199.019 174.303 196.913 179.372 194.774C181.254 193.978 182.86 192.645 183.99 190.942C185.12 189.239 185.723 187.241 185.725 185.197V77.5703C185.725 75.9332 186.047 74.3122 186.673 72.7997C187.3 71.2872 188.218 69.9129 189.375 68.7552C190.533 67.5975 191.907 66.6792 193.419 66.0526C194.932 65.426 196.553 65.1035 198.19 65.1033H218.969C222.275 65.1033 225.446 66.4168 227.785 68.7548C230.123 71.0927 231.436 74.2638 231.437 77.5703V166.195C249.451 153.14 267.708 137.437 282.196 118.556C284.298 115.816 285.689 112.597 286.244 109.188C286.8 105.779 286.503 102.286 285.381 99.0193C275.578 70.4505 257.19 45.6069 232.732 27.8854C208.273 10.1638 178.938 0.429483 148.737 0.0133118C67.2977 -1.08069 -0.00729532 65.3983 0.000704677 146.847C-0.0792585 172.62 6.64746 197.958 19.5007 220.297C21.2733 223.353 23.881 225.839 27.0176 227.464C30.1541 229.089 33.6893 229.785 37.2077 229.47C41.1387 229.124 46.0327 228.635 51.8507 227.952C54.383 227.664 56.7209 226.455 58.4191 224.554C60.1173 222.654 61.0571 220.195 61.0597 217.646V139.822" fill="#9CA3AF"/>
<path d="M60.6026 265.58C82.5045 281.513 108.387 291.077 135.387 293.213C162.387 295.349 189.452 289.975 213.587 277.684C237.722 265.394 257.986 246.666 272.138 223.574C286.291 200.481 293.779 173.923 293.775 146.839C293.775 143.458 293.618 140.115 293.392 136.79C239.75 216.79 140.706 254.195 60.6016 265.583" fill="#9CA3AF"/>
</svg>
